<mxfile host="app.diagrams.net" agent="Mozilla/5.0 (Windows NT 10.0; Win64; x64) AppleWebKit/537.36 (KHTML, like Gecko) Chrome/141.0.0.0 Safari/537.36 Edg/141.0.0.0" version="28.2.5" pages="3">
  <diagram name="Spring循环依赖" id="0x529ET4NE5DzibJDSWY">
    <mxGraphModel dx="1434" dy="540" grid="1" gridSize="10" guides="1" tooltips="1" connect="1" arrows="1" fold="1" page="0" pageScale="1" pageWidth="1654" pageHeight="2336" math="0" shadow="0">
      <root>
        <mxCell id="0" />
        <mxCell id="1" parent="0" />
        <mxCell id="7eGFCxAviJLLNRZ744zi-5" style="edgeStyle=orthogonalEdgeStyle;rounded=0;orthogonalLoop=1;jettySize=auto;html=1;entryX=0.5;entryY=0;entryDx=0;entryDy=0;curved=1;fontSize=18;fontStyle=1" parent="1" source="7eGFCxAviJLLNRZ744zi-1" target="7eGFCxAviJLLNRZ744zi-2" edge="1">
          <mxGeometry relative="1" as="geometry" />
        </mxCell>
        <mxCell id="7eGFCxAviJLLNRZ744zi-1" value="&lt;span style=&quot;font-size: 18px;&quot;&gt;A&lt;/span&gt;" style="ellipse;whiteSpace=wrap;html=1;aspect=fixed;fillColor=#d5e8d4;strokeColor=#82b366;fontSize=18;fontStyle=1" parent="1" vertex="1">
          <mxGeometry x="150" y="160" width="80" height="80" as="geometry" />
        </mxCell>
        <mxCell id="7eGFCxAviJLLNRZ744zi-6" style="edgeStyle=orthogonalEdgeStyle;rounded=0;orthogonalLoop=1;jettySize=auto;html=1;entryX=0.5;entryY=1;entryDx=0;entryDy=0;curved=1;fontSize=18;fontStyle=1" parent="1" source="7eGFCxAviJLLNRZ744zi-2" target="7eGFCxAviJLLNRZ744zi-1" edge="1">
          <mxGeometry relative="1" as="geometry" />
        </mxCell>
        <mxCell id="7eGFCxAviJLLNRZ744zi-2" value="B" style="ellipse;whiteSpace=wrap;html=1;aspect=fixed;fillColor=#dae8fc;strokeColor=#6c8ebf;fontSize=18;fontStyle=1" parent="1" vertex="1">
          <mxGeometry x="410" y="160" width="80" height="80" as="geometry" />
        </mxCell>
        <mxCell id="7eGFCxAviJLLNRZ744zi-9" value="&lt;div style=&quot;font-size: 18px;&quot;&gt;&lt;span style=&quot;background-color: initial; font-size: 18px;&quot;&gt;&lt;font style=&quot;font-size: 18px;&quot;&gt;@Compoment&lt;/font&gt;&lt;/span&gt;&lt;br style=&quot;font-size: 18px;&quot;&gt;&lt;/div&gt;&lt;div style=&quot;font-size: 18px;&quot;&gt;&lt;span style=&quot;font-size: 18px;&quot;&gt;&lt;font style=&quot;font-size: 18px;&quot;&gt;public class A{&lt;/font&gt;&lt;/span&gt;&lt;/div&gt;&lt;div style=&quot;font-size: 18px;&quot;&gt;&lt;span style=&quot;font-size: 18px;&quot;&gt;&lt;font style=&quot;font-size: 18px;&quot;&gt;&lt;span style=&quot;white-space: pre; font-size: 18px;&quot;&gt;&#x9;&lt;/span&gt;@Autowired&lt;/font&gt;&lt;/span&gt;&lt;/div&gt;&lt;div style=&quot;font-size: 18px;&quot;&gt;&lt;span style=&quot;background-color: initial; font-size: 18px;&quot;&gt;&lt;font style=&quot;font-size: 18px;&quot;&gt;&lt;span style=&quot;white-space: pre; font-size: 18px;&quot;&gt;&#x9;&lt;/span&gt;private B b;&lt;/font&gt;&lt;/span&gt;&lt;br style=&quot;font-size: 18px;&quot;&gt;&lt;/div&gt;&lt;div style=&quot;font-size: 18px;&quot;&gt;&lt;span style=&quot;background-color: initial; font-size: 18px;&quot;&gt;&lt;font style=&quot;font-size: 18px;&quot;&gt;}&lt;/font&gt;&lt;/span&gt;&lt;br style=&quot;font-size: 18px;&quot;&gt;&lt;/div&gt;" style="shape=note;whiteSpace=wrap;html=1;backgroundOutline=1;darkOpacity=0.05;fillColor=#d5e8d4;strokeColor=#82b366;direction=west;fontSize=18;fontStyle=1" parent="1" vertex="1">
          <mxGeometry x="-20" y="50" width="160" height="160" as="geometry" />
        </mxCell>
        <mxCell id="7eGFCxAviJLLNRZ744zi-10" value="&lt;div style=&quot;font-size: 18px;&quot;&gt;&lt;span style=&quot;background-color: initial; font-size: 18px;&quot;&gt;&lt;font style=&quot;font-size: 18px;&quot;&gt;@Compoment&lt;/font&gt;&lt;/span&gt;&lt;br style=&quot;font-size: 18px;&quot;&gt;&lt;/div&gt;&lt;div style=&quot;font-size: 18px;&quot;&gt;&lt;span style=&quot;font-size: 18px;&quot;&gt;&lt;font style=&quot;font-size: 18px;&quot;&gt;public class B{&lt;/font&gt;&lt;/span&gt;&lt;/div&gt;&lt;div style=&quot;font-size: 18px;&quot;&gt;&lt;span style=&quot;font-size: 18px;&quot;&gt;&lt;font style=&quot;font-size: 18px;&quot;&gt;&lt;span style=&quot;white-space: pre; font-size: 18px;&quot;&gt;&#x9;&lt;/span&gt;@Autowired&lt;/font&gt;&lt;/span&gt;&lt;/div&gt;&lt;div style=&quot;font-size: 18px;&quot;&gt;&lt;span style=&quot;background-color: initial; font-size: 18px;&quot;&gt;&lt;font style=&quot;font-size: 18px;&quot;&gt;&lt;span style=&quot;white-space: pre; font-size: 18px;&quot;&gt;&#x9;&lt;/span&gt;private A a;&lt;/font&gt;&lt;/span&gt;&lt;br style=&quot;font-size: 18px;&quot;&gt;&lt;/div&gt;&lt;div style=&quot;font-size: 18px;&quot;&gt;&lt;span style=&quot;background-color: initial; font-size: 18px;&quot;&gt;&lt;font style=&quot;font-size: 18px;&quot;&gt;}&lt;/font&gt;&lt;/span&gt;&lt;br style=&quot;font-size: 18px;&quot;&gt;&lt;/div&gt;" style="shape=note;whiteSpace=wrap;html=1;backgroundOutline=1;darkOpacity=0.05;fillColor=#dae8fc;strokeColor=#6c8ebf;direction=west;fontSize=18;fontStyle=1" parent="1" vertex="1">
          <mxGeometry x="490" y="30" width="160" height="160" as="geometry" />
        </mxCell>
        <mxCell id="7eGFCxAviJLLNRZ744zi-11" value="&lt;span style=&quot;font-size: 18px;&quot;&gt;&lt;font style=&quot;font-size: 18px;&quot;&gt;循环依赖&lt;/font&gt;&lt;/span&gt;" style="text;html=1;align=center;verticalAlign=middle;whiteSpace=wrap;rounded=0;fontSize=18;fontStyle=1" parent="1" vertex="1">
          <mxGeometry x="210" y="50" width="102" height="30" as="geometry" />
        </mxCell>
        <mxCell id="7eGFCxAviJLLNRZ744zi-16" value="" style="edgeStyle=orthogonalEdgeStyle;rounded=0;orthogonalLoop=1;jettySize=auto;html=1;fontSize=18;fontStyle=1" parent="1" source="7eGFCxAviJLLNRZ744zi-13" target="7eGFCxAviJLLNRZ744zi-15" edge="1">
          <mxGeometry relative="1" as="geometry" />
        </mxCell>
        <mxCell id="7eGFCxAviJLLNRZ744zi-48" value="②" style="edgeLabel;html=1;align=center;verticalAlign=middle;resizable=0;points=[];fontSize=18;fontStyle=1" parent="7eGFCxAviJLLNRZ744zi-16" vertex="1" connectable="0">
          <mxGeometry x="-0.23" y="2" relative="1" as="geometry">
            <mxPoint as="offset" />
          </mxGeometry>
        </mxCell>
        <mxCell id="7eGFCxAviJLLNRZ744zi-46" style="edgeStyle=orthogonalEdgeStyle;rounded=0;orthogonalLoop=1;jettySize=auto;html=1;fontSize=18;fontStyle=1" parent="1" target="7eGFCxAviJLLNRZ744zi-13" edge="1">
          <mxGeometry relative="1" as="geometry">
            <mxPoint x="110" y="330" as="sourcePoint" />
          </mxGeometry>
        </mxCell>
        <mxCell id="7eGFCxAviJLLNRZ744zi-50" style="edgeStyle=orthogonalEdgeStyle;rounded=0;orthogonalLoop=1;jettySize=auto;html=1;entryX=0.5;entryY=0;entryDx=0;entryDy=0;fontSize=18;fontStyle=1" parent="1" source="7eGFCxAviJLLNRZ744zi-13" target="7eGFCxAviJLLNRZ744zi-19" edge="1">
          <mxGeometry relative="1" as="geometry" />
        </mxCell>
        <mxCell id="7eGFCxAviJLLNRZ744zi-51" value="③" style="edgeLabel;html=1;align=center;verticalAlign=middle;resizable=0;points=[];fontSize=18;fontStyle=1" parent="7eGFCxAviJLLNRZ744zi-50" vertex="1" connectable="0">
          <mxGeometry x="-0.2044" y="2" relative="1" as="geometry">
            <mxPoint as="offset" />
          </mxGeometry>
        </mxCell>
        <mxCell id="7eGFCxAviJLLNRZ744zi-13" value="实例化A" style="rounded=1;whiteSpace=wrap;html=1;fillColor=#dae8fc;strokeColor=#6c8ebf;fontSize=18;fontStyle=1" parent="1" vertex="1">
          <mxGeometry x="50" y="420" width="120" height="60" as="geometry" />
        </mxCell>
        <mxCell id="7eGFCxAviJLLNRZ744zi-18" value="" style="edgeStyle=orthogonalEdgeStyle;rounded=0;orthogonalLoop=1;jettySize=auto;html=1;fontSize=18;fontStyle=1" parent="1" source="7eGFCxAviJLLNRZ744zi-15" target="7eGFCxAviJLLNRZ744zi-17" edge="1">
          <mxGeometry relative="1" as="geometry" />
        </mxCell>
        <mxCell id="7eGFCxAviJLLNRZ744zi-15" value="在堆中开辟内存空间" style="rounded=1;whiteSpace=wrap;html=1;fillColor=#dae8fc;strokeColor=#6c8ebf;fontSize=18;fontStyle=1" parent="1" vertex="1">
          <mxGeometry x="250" y="420" width="120" height="60" as="geometry" />
        </mxCell>
        <mxCell id="7eGFCxAviJLLNRZ744zi-17" value="半成品A" style="rounded=1;whiteSpace=wrap;html=1;fillColor=#dae8fc;strokeColor=#6c8ebf;fontSize=18;fontStyle=1" parent="1" vertex="1">
          <mxGeometry x="450" y="420" width="120" height="60" as="geometry" />
        </mxCell>
        <mxCell id="7eGFCxAviJLLNRZ744zi-21" value="" style="edgeStyle=orthogonalEdgeStyle;rounded=0;orthogonalLoop=1;jettySize=auto;html=1;fontSize=18;fontStyle=1" parent="1" source="7eGFCxAviJLLNRZ744zi-19" target="7eGFCxAviJLLNRZ744zi-20" edge="1">
          <mxGeometry relative="1" as="geometry" />
        </mxCell>
        <mxCell id="7eGFCxAviJLLNRZ744zi-19" value="初始化A" style="rounded=1;whiteSpace=wrap;html=1;fillColor=#d5e8d4;strokeColor=#82b366;fontSize=18;fontStyle=1" parent="1" vertex="1">
          <mxGeometry x="50" y="570" width="120" height="60" as="geometry" />
        </mxCell>
        <mxCell id="7eGFCxAviJLLNRZ744zi-23" value="" style="edgeStyle=orthogonalEdgeStyle;rounded=0;orthogonalLoop=1;jettySize=auto;html=1;fontSize=18;fontStyle=1" parent="1" source="7eGFCxAviJLLNRZ744zi-20" target="7eGFCxAviJLLNRZ744zi-22" edge="1">
          <mxGeometry relative="1" as="geometry" />
        </mxCell>
        <mxCell id="7eGFCxAviJLLNRZ744zi-20" value="&lt;font style=&quot;font-size: 15px;&quot;&gt;设置b属性,b是B类型的对象，要到Spring容器去查找&lt;/font&gt;" style="rounded=1;whiteSpace=wrap;html=1;fillColor=#d5e8d4;strokeColor=#82b366;fontSize=18;fontStyle=1" parent="1" vertex="1">
          <mxGeometry x="250" y="570" width="120" height="60" as="geometry" />
        </mxCell>
        <mxCell id="7eGFCxAviJLLNRZ744zi-25" value="" style="edgeStyle=orthogonalEdgeStyle;rounded=0;orthogonalLoop=1;jettySize=auto;html=1;fontSize=18;fontStyle=1;dashed=1;" parent="1" source="7eGFCxAviJLLNRZ744zi-22" target="7eGFCxAviJLLNRZ744zi-24" edge="1">
          <mxGeometry relative="1" as="geometry" />
        </mxCell>
        <mxCell id="7eGFCxAviJLLNRZ744zi-36" value="是" style="edgeLabel;html=1;align=center;verticalAlign=middle;resizable=0;points=[];fontSize=18;fontStyle=1" parent="7eGFCxAviJLLNRZ744zi-25" vertex="1" connectable="0">
          <mxGeometry x="-0.2" y="1" relative="1" as="geometry">
            <mxPoint as="offset" />
          </mxGeometry>
        </mxCell>
        <mxCell id="7eGFCxAviJLLNRZ744zi-37" style="edgeStyle=orthogonalEdgeStyle;rounded=0;orthogonalLoop=1;jettySize=auto;html=1;fontSize=18;fontStyle=1" parent="1" source="7eGFCxAviJLLNRZ744zi-22" target="7eGFCxAviJLLNRZ744zi-26" edge="1">
          <mxGeometry relative="1" as="geometry">
            <Array as="points">
              <mxPoint x="510" y="670" />
              <mxPoint x="100" y="670" />
            </Array>
          </mxGeometry>
        </mxCell>
        <mxCell id="7eGFCxAviJLLNRZ744zi-38" value="否" style="edgeLabel;html=1;align=center;verticalAlign=middle;resizable=0;points=[];fontSize=18;fontStyle=1" parent="7eGFCxAviJLLNRZ744zi-37" vertex="1" connectable="0">
          <mxGeometry x="-0.8993" y="-2" relative="1" as="geometry">
            <mxPoint as="offset" />
          </mxGeometry>
        </mxCell>
        <mxCell id="7eGFCxAviJLLNRZ744zi-22" value="&lt;font style=&quot;font-size: 16px;&quot;&gt;容器中是否存在B对象&lt;/font&gt;" style="rhombus;whiteSpace=wrap;html=1;fillColor=#d5e8d4;strokeColor=#82b366;rounded=1;fontSize=18;fontStyle=1" parent="1" vertex="1">
          <mxGeometry x="470" y="560" width="80" height="80" as="geometry" />
        </mxCell>
        <mxCell id="7eGFCxAviJLLNRZ744zi-24" value="赋值并返回" style="whiteSpace=wrap;html=1;fillColor=#d5e8d4;strokeColor=#82b366;rounded=1;fontSize=18;fontStyle=1" parent="1" vertex="1">
          <mxGeometry x="690" y="570" width="120" height="60" as="geometry" />
        </mxCell>
        <mxCell id="7eGFCxAviJLLNRZ744zi-28" value="" style="edgeStyle=orthogonalEdgeStyle;rounded=0;orthogonalLoop=1;jettySize=auto;html=1;fontSize=18;fontStyle=1" parent="1" source="7eGFCxAviJLLNRZ744zi-26" target="7eGFCxAviJLLNRZ744zi-27" edge="1">
          <mxGeometry relative="1" as="geometry" />
        </mxCell>
        <mxCell id="7eGFCxAviJLLNRZ744zi-52" value="④" style="edgeLabel;html=1;align=center;verticalAlign=middle;resizable=0;points=[];fontSize=18;fontStyle=1" parent="7eGFCxAviJLLNRZ744zi-28" vertex="1" connectable="0">
          <mxGeometry x="-0.18" y="1" relative="1" as="geometry">
            <mxPoint as="offset" />
          </mxGeometry>
        </mxCell>
        <mxCell id="7eGFCxAviJLLNRZ744zi-53" style="edgeStyle=orthogonalEdgeStyle;rounded=0;orthogonalLoop=1;jettySize=auto;html=1;" parent="1" source="7eGFCxAviJLLNRZ744zi-26" target="7eGFCxAviJLLNRZ744zi-31" edge="1">
          <mxGeometry relative="1" as="geometry" />
        </mxCell>
        <mxCell id="7eGFCxAviJLLNRZ744zi-54" value="⑤" style="edgeLabel;html=1;align=center;verticalAlign=middle;resizable=0;points=[];fontStyle=1;fontSize=18;" parent="7eGFCxAviJLLNRZ744zi-53" vertex="1" connectable="0">
          <mxGeometry x="-0.38" y="-1" relative="1" as="geometry">
            <mxPoint as="offset" />
          </mxGeometry>
        </mxCell>
        <mxCell id="7eGFCxAviJLLNRZ744zi-26" value="实例化B" style="rounded=1;whiteSpace=wrap;html=1;fillColor=#f8cecc;strokeColor=#b85450;fontSize=18;fontStyle=1" parent="1" vertex="1">
          <mxGeometry x="40" y="730" width="120" height="60" as="geometry" />
        </mxCell>
        <mxCell id="7eGFCxAviJLLNRZ744zi-30" value="" style="edgeStyle=orthogonalEdgeStyle;rounded=0;orthogonalLoop=1;jettySize=auto;html=1;fontSize=18;fontStyle=1" parent="1" source="7eGFCxAviJLLNRZ744zi-27" target="7eGFCxAviJLLNRZ744zi-29" edge="1">
          <mxGeometry relative="1" as="geometry" />
        </mxCell>
        <mxCell id="7eGFCxAviJLLNRZ744zi-27" value="在堆中开辟内存空间" style="rounded=1;whiteSpace=wrap;html=1;fillColor=#f8cecc;strokeColor=#b85450;fontSize=18;fontStyle=1" parent="1" vertex="1">
          <mxGeometry x="240" y="730" width="120" height="60" as="geometry" />
        </mxCell>
        <mxCell id="7eGFCxAviJLLNRZ744zi-29" value="半成品B" style="rounded=1;whiteSpace=wrap;html=1;fillColor=#f8cecc;strokeColor=#b85450;fontSize=18;fontStyle=1" parent="1" vertex="1">
          <mxGeometry x="440" y="730" width="120" height="60" as="geometry" />
        </mxCell>
        <mxCell id="7eGFCxAviJLLNRZ744zi-33" value="" style="edgeStyle=orthogonalEdgeStyle;rounded=0;orthogonalLoop=1;jettySize=auto;html=1;fontSize=18;fontStyle=1" parent="1" source="7eGFCxAviJLLNRZ744zi-31" target="7eGFCxAviJLLNRZ744zi-32" edge="1">
          <mxGeometry relative="1" as="geometry" />
        </mxCell>
        <mxCell id="7eGFCxAviJLLNRZ744zi-31" value="初始化B" style="rounded=1;whiteSpace=wrap;html=1;fillColor=#ffe6cc;strokeColor=#d79b00;fontSize=18;fontStyle=1" parent="1" vertex="1">
          <mxGeometry x="40" y="870" width="120" height="60" as="geometry" />
        </mxCell>
        <mxCell id="7eGFCxAviJLLNRZ744zi-35" value="" style="edgeStyle=orthogonalEdgeStyle;rounded=0;orthogonalLoop=1;jettySize=auto;html=1;fontSize=18;fontStyle=1" parent="1" source="7eGFCxAviJLLNRZ744zi-32" target="7eGFCxAviJLLNRZ744zi-34" edge="1">
          <mxGeometry relative="1" as="geometry" />
        </mxCell>
        <mxCell id="7eGFCxAviJLLNRZ744zi-32" value="&lt;font style=&quot;font-size: 15px;&quot;&gt;设置a属性,a是A类型的对象，要到Spring容器去查找&lt;/font&gt;" style="rounded=1;whiteSpace=wrap;html=1;fillColor=#ffe6cc;strokeColor=#d79b00;fontSize=18;fontStyle=1" parent="1" vertex="1">
          <mxGeometry x="240" y="870" width="120" height="60" as="geometry" />
        </mxCell>
        <mxCell id="7eGFCxAviJLLNRZ744zi-40" value="" style="edgeStyle=orthogonalEdgeStyle;rounded=0;orthogonalLoop=1;jettySize=auto;html=1;fontSize=18;fontStyle=1;dashed=1;" parent="1" source="7eGFCxAviJLLNRZ744zi-34" target="7eGFCxAviJLLNRZ744zi-39" edge="1">
          <mxGeometry relative="1" as="geometry" />
        </mxCell>
        <mxCell id="7eGFCxAviJLLNRZ744zi-41" value="是" style="edgeLabel;html=1;align=center;verticalAlign=middle;resizable=0;points=[];fontSize=18;fontStyle=1" parent="7eGFCxAviJLLNRZ744zi-40" vertex="1" connectable="0">
          <mxGeometry x="-0.0889" y="3" relative="1" as="geometry">
            <mxPoint as="offset" />
          </mxGeometry>
        </mxCell>
        <mxCell id="7eGFCxAviJLLNRZ744zi-44" style="edgeStyle=orthogonalEdgeStyle;rounded=0;orthogonalLoop=1;jettySize=auto;html=1;entryX=0;entryY=0.5;entryDx=0;entryDy=0;exitX=0.5;exitY=1;exitDx=0;exitDy=0;fontSize=18;fontStyle=1;dashed=1;strokeColor=#FF3333;" parent="1" source="7eGFCxAviJLLNRZ744zi-34" target="7eGFCxAviJLLNRZ744zi-13" edge="1">
          <mxGeometry relative="1" as="geometry">
            <mxPoint x="450" y="980" as="sourcePoint" />
            <mxPoint x="40" y="530" as="targetPoint" />
            <Array as="points">
              <mxPoint x="500" y="980" />
              <mxPoint x="-20" y="980" />
              <mxPoint x="-20" y="450" />
            </Array>
          </mxGeometry>
        </mxCell>
        <mxCell id="7eGFCxAviJLLNRZ744zi-45" value="否" style="edgeLabel;html=1;align=center;verticalAlign=middle;resizable=0;points=[];fontSize=18;fontStyle=1" parent="7eGFCxAviJLLNRZ744zi-44" vertex="1" connectable="0">
          <mxGeometry x="-0.7428" y="-1" relative="1" as="geometry">
            <mxPoint as="offset" />
          </mxGeometry>
        </mxCell>
        <mxCell id="7eGFCxAviJLLNRZ744zi-55" value="⑥" style="edgeLabel;html=1;align=center;verticalAlign=middle;resizable=0;points=[];fontSize=18;fontStyle=1" parent="7eGFCxAviJLLNRZ744zi-44" vertex="1" connectable="0">
          <mxGeometry x="0.8997" y="3" relative="1" as="geometry">
            <mxPoint as="offset" />
          </mxGeometry>
        </mxCell>
        <mxCell id="7eGFCxAviJLLNRZ744zi-34" value="&lt;font style=&quot;font-size: 16px;&quot;&gt;容器中是否存在A对象&lt;/font&gt;" style="rhombus;whiteSpace=wrap;html=1;fillColor=#ffe6cc;strokeColor=#d79b00;rounded=1;fontSize=18;fontStyle=1" parent="1" vertex="1">
          <mxGeometry x="460" y="860" width="80" height="80" as="geometry" />
        </mxCell>
        <mxCell id="7eGFCxAviJLLNRZ744zi-39" value="赋值并返回" style="whiteSpace=wrap;html=1;fillColor=#ffe6cc;strokeColor=#d79b00;rounded=1;fontSize=18;fontStyle=1" parent="1" vertex="1">
          <mxGeometry x="690" y="870" width="120" height="60" as="geometry" />
        </mxCell>
        <mxCell id="7eGFCxAviJLLNRZ744zi-47" value="&lt;span style=&quot;font-size: 18px;&quot;&gt;&lt;font style=&quot;font-size: 18px;&quot;&gt;①&lt;/font&gt;&lt;/span&gt;" style="text;html=1;align=center;verticalAlign=middle;whiteSpace=wrap;rounded=0;fontSize=18;fontStyle=1" parent="1" vertex="1">
          <mxGeometry x="90" y="370" width="102" height="30" as="geometry" />
        </mxCell>
      </root>
    </mxGraphModel>
  </diagram>
  <diagram id="gjvMlPMjbL012iBnHcg6" name="ioc">
    <mxGraphModel dx="1034" dy="574" grid="0" gridSize="10" guides="1" tooltips="1" connect="1" arrows="1" fold="1" page="1" pageScale="1" pageWidth="2339" pageHeight="3300" math="0" shadow="0">
      <root>
        <mxCell id="0" />
        <mxCell id="1" parent="0" />
        <mxCell id="o7iL2sBmlgtw_dIB-bSz-2" value="" style="rounded=0;whiteSpace=wrap;html=1;fillColor=#dae8fc;strokeColor=#6c8ebf;" parent="1" vertex="1">
          <mxGeometry x="340" y="220" width="330" height="280" as="geometry" />
        </mxCell>
        <mxCell id="o7iL2sBmlgtw_dIB-bSz-3" value="" style="ellipse;whiteSpace=wrap;html=1;aspect=fixed;" parent="1" vertex="1">
          <mxGeometry x="380" y="270" width="60" height="60" as="geometry" />
        </mxCell>
        <mxCell id="o7iL2sBmlgtw_dIB-bSz-4" value="" style="ellipse;whiteSpace=wrap;html=1;aspect=fixed;" parent="1" vertex="1">
          <mxGeometry x="550" y="390" width="60" height="60" as="geometry" />
        </mxCell>
        <mxCell id="o7iL2sBmlgtw_dIB-bSz-5" value="" style="ellipse;whiteSpace=wrap;html=1;aspect=fixed;" parent="1" vertex="1">
          <mxGeometry x="520" y="270" width="60" height="60" as="geometry" />
        </mxCell>
        <mxCell id="o7iL2sBmlgtw_dIB-bSz-6" value="" style="ellipse;whiteSpace=wrap;html=1;aspect=fixed;" parent="1" vertex="1">
          <mxGeometry x="410" y="400" width="60" height="60" as="geometry" />
        </mxCell>
        <mxCell id="o7iL2sBmlgtw_dIB-bSz-9" value="&lt;b&gt;&lt;font style=&quot;font-size: 26px;&quot;&gt;IOC容器&lt;/font&gt;&lt;/b&gt;" style="text;html=1;align=center;verticalAlign=middle;whiteSpace=wrap;rounded=0;" parent="1" vertex="1">
          <mxGeometry x="432" y="524" width="126" height="30" as="geometry" />
        </mxCell>
        <mxCell id="o7iL2sBmlgtw_dIB-bSz-11" value="" style="shape=note;whiteSpace=wrap;html=1;backgroundOutline=1;fontColor=#000000;darkOpacity=0.05;fillColor=#FFF9B2;strokeColor=none;fillStyle=solid;direction=north;gradientDirection=north;gradientColor=#FFF2A1;shadow=1;size=20;pointerEvents=1;" parent="1" vertex="1">
          <mxGeometry x="717" y="218" width="262" height="284" as="geometry" />
        </mxCell>
        <mxCell id="o7iL2sBmlgtw_dIB-bSz-12" value="&lt;b&gt;&lt;font style=&quot;font-size: 18px;&quot;&gt;IOC把程序需要的对象创建好，我们要用的时候，直接从里面取出来就可以了，类似于缓冲池&lt;/font&gt;&lt;/b&gt;" style="text;html=1;align=center;verticalAlign=middle;whiteSpace=wrap;rounded=0;" parent="1" vertex="1">
          <mxGeometry x="734" y="250" width="233" height="198" as="geometry" />
        </mxCell>
        <mxCell id="-hlvr4IsE5EWrB624ele-1" value="" style="rounded=0;whiteSpace=wrap;html=1;fillColor=#dae8fc;strokeColor=#6c8ebf;" parent="1" vertex="1">
          <mxGeometry x="422" y="669" width="172" height="315" as="geometry" />
        </mxCell>
        <mxCell id="-hlvr4IsE5EWrB624ele-8" style="edgeStyle=orthogonalEdgeStyle;rounded=0;orthogonalLoop=1;jettySize=auto;html=1;" parent="1" source="-hlvr4IsE5EWrB624ele-2" target="-hlvr4IsE5EWrB624ele-7" edge="1">
          <mxGeometry relative="1" as="geometry" />
        </mxCell>
        <mxCell id="-hlvr4IsE5EWrB624ele-9" style="edgeStyle=orthogonalEdgeStyle;rounded=0;orthogonalLoop=1;jettySize=auto;html=1;" parent="1" source="-hlvr4IsE5EWrB624ele-2" target="-hlvr4IsE5EWrB624ele-6" edge="1">
          <mxGeometry relative="1" as="geometry" />
        </mxCell>
        <mxCell id="-hlvr4IsE5EWrB624ele-2" value="&lt;font style=&quot;font-size: 24px;&quot;&gt;stu&lt;/font&gt;" style="ellipse;whiteSpace=wrap;html=1;aspect=fixed;" parent="1" vertex="1">
          <mxGeometry x="461" y="781" width="80" height="80" as="geometry" />
        </mxCell>
        <mxCell id="-hlvr4IsE5EWrB624ele-3" value="&lt;b&gt;&lt;font style=&quot;font-size: 26px;&quot;&gt;IOC容器&lt;/font&gt;&lt;/b&gt;" style="text;html=1;align=center;verticalAlign=middle;whiteSpace=wrap;rounded=0;" parent="1" vertex="1">
          <mxGeometry x="448" y="1030" width="126" height="30" as="geometry" />
        </mxCell>
        <mxCell id="-hlvr4IsE5EWrB624ele-4" value="" style="rounded=0;whiteSpace=wrap;html=1;fillColor=#d5e8d4;strokeColor=#82b366;" parent="1" vertex="1">
          <mxGeometry x="784" y="669" width="204" height="322" as="geometry" />
        </mxCell>
        <mxCell id="-hlvr4IsE5EWrB624ele-5" value="&lt;span style=&quot;font-size: 26px;&quot;&gt;&lt;b&gt;业务层代码&lt;/b&gt;&lt;/span&gt;" style="text;html=1;align=center;verticalAlign=middle;whiteSpace=wrap;rounded=0;" parent="1" vertex="1">
          <mxGeometry x="811" y="1032" width="154" height="30" as="geometry" />
        </mxCell>
        <mxCell id="-hlvr4IsE5EWrB624ele-6" value="&lt;font style=&quot;font-size: 24px;&quot;&gt;stu2&lt;/font&gt;" style="ellipse;whiteSpace=wrap;html=1;aspect=fixed;" parent="1" vertex="1">
          <mxGeometry x="848" y="855" width="80" height="80" as="geometry" />
        </mxCell>
        <mxCell id="-hlvr4IsE5EWrB624ele-7" value="&lt;font style=&quot;font-size: 24px;&quot;&gt;stu1&lt;/font&gt;" style="ellipse;whiteSpace=wrap;html=1;aspect=fixed;" parent="1" vertex="1">
          <mxGeometry x="848" y="733" width="80" height="80" as="geometry" />
        </mxCell>
        <mxCell id="-hlvr4IsE5EWrB624ele-10" value="&lt;font style=&quot;font-size: 21px;&quot;&gt;&lt;b style=&quot;&quot;&gt;虽然stu被引用了两次，但是IOC容器中只有一个stu对象&lt;/b&gt;&lt;/font&gt;" style="text;html=1;align=center;verticalAlign=middle;whiteSpace=wrap;rounded=0;" parent="1" vertex="1">
          <mxGeometry x="541" y="625" width="367" height="30" as="geometry" />
        </mxCell>
        <mxCell id="-hlvr4IsE5EWrB624ele-11" value="&lt;b&gt;&lt;font style=&quot;font-size: 18px; color: rgb(255, 51, 51);&quot;&gt;Spring中Bean的默认作用域是单例&lt;/font&gt;&lt;/b&gt;" style="text;html=1;align=center;verticalAlign=middle;whiteSpace=wrap;rounded=0;" parent="1" vertex="1">
          <mxGeometry x="614" y="708" width="157" height="30" as="geometry" />
        </mxCell>
        <mxCell id="-hlvr4IsE5EWrB624ele-12" value="" style="rounded=0;whiteSpace=wrap;html=1;fillColor=#dae8fc;strokeColor=#6c8ebf;" parent="1" vertex="1">
          <mxGeometry x="380" y="1160" width="172" height="315" as="geometry" />
        </mxCell>
        <mxCell id="-hlvr4IsE5EWrB624ele-24" style="edgeStyle=orthogonalEdgeStyle;rounded=0;orthogonalLoop=1;jettySize=auto;html=1;entryX=0;entryY=0.5;entryDx=0;entryDy=0;" parent="1" source="-hlvr4IsE5EWrB624ele-15" target="-hlvr4IsE5EWrB624ele-20" edge="1">
          <mxGeometry relative="1" as="geometry" />
        </mxCell>
        <mxCell id="-hlvr4IsE5EWrB624ele-15" value="&lt;font style=&quot;font-size: 24px;&quot;&gt;stu1&lt;/font&gt;&lt;div&gt;&lt;span style=&quot;font-size: 24px;&quot;&gt;皮卡丘&lt;/span&gt;&lt;/div&gt;" style="ellipse;whiteSpace=wrap;html=1;aspect=fixed;" parent="1" vertex="1">
          <mxGeometry x="417" y="1224" width="80" height="80" as="geometry" />
        </mxCell>
        <mxCell id="-hlvr4IsE5EWrB624ele-16" value="&lt;b&gt;&lt;font style=&quot;font-size: 26px;&quot;&gt;IOC容器&lt;/font&gt;&lt;/b&gt;" style="text;html=1;align=center;verticalAlign=middle;whiteSpace=wrap;rounded=0;" parent="1" vertex="1">
          <mxGeometry x="406" y="1521" width="126" height="30" as="geometry" />
        </mxCell>
        <mxCell id="-hlvr4IsE5EWrB624ele-17" value="" style="rounded=0;whiteSpace=wrap;html=1;fillColor=#d5e8d4;strokeColor=#82b366;" parent="1" vertex="1">
          <mxGeometry x="742" y="1160" width="204" height="322" as="geometry" />
        </mxCell>
        <mxCell id="-hlvr4IsE5EWrB624ele-18" value="&lt;span style=&quot;font-size: 26px;&quot;&gt;&lt;b&gt;业务层代码&lt;/b&gt;&lt;/span&gt;" style="text;html=1;align=center;verticalAlign=middle;whiteSpace=wrap;rounded=0;" parent="1" vertex="1">
          <mxGeometry x="769" y="1523" width="154" height="30" as="geometry" />
        </mxCell>
        <mxCell id="-hlvr4IsE5EWrB624ele-19" value="&lt;font style=&quot;font-size: 24px;&quot;&gt;stu2&lt;/font&gt;" style="ellipse;whiteSpace=wrap;html=1;aspect=fixed;" parent="1" vertex="1">
          <mxGeometry x="806" y="1346" width="80" height="80" as="geometry" />
        </mxCell>
        <mxCell id="-hlvr4IsE5EWrB624ele-20" value="&lt;font style=&quot;font-size: 24px;&quot;&gt;stu1&lt;/font&gt;" style="ellipse;whiteSpace=wrap;html=1;aspect=fixed;" parent="1" vertex="1">
          <mxGeometry x="806" y="1224" width="80" height="80" as="geometry" />
        </mxCell>
        <mxCell id="-hlvr4IsE5EWrB624ele-25" style="edgeStyle=orthogonalEdgeStyle;rounded=0;orthogonalLoop=1;jettySize=auto;html=1;entryX=0;entryY=0.5;entryDx=0;entryDy=0;" parent="1" source="-hlvr4IsE5EWrB624ele-23" target="-hlvr4IsE5EWrB624ele-19" edge="1">
          <mxGeometry relative="1" as="geometry" />
        </mxCell>
        <mxCell id="-hlvr4IsE5EWrB624ele-23" value="&lt;font style=&quot;font-size: 24px;&quot;&gt;stu2&lt;/font&gt;&lt;div&gt;&lt;span style=&quot;font-size: 24px;&quot;&gt;皮卡丘&lt;/span&gt;&lt;/div&gt;" style="ellipse;whiteSpace=wrap;html=1;aspect=fixed;" parent="1" vertex="1">
          <mxGeometry x="412" y="1346" width="80" height="80" as="geometry" />
        </mxCell>
        <mxCell id="-hlvr4IsE5EWrB624ele-26" value="&lt;b&gt;&lt;font style=&quot;font-size: 18px; color: rgb(255, 51, 51);&quot;&gt;Bean作用域是prototype时，每调用一次getBean()都会创建新对象&lt;/font&gt;&lt;/b&gt;" style="text;html=1;align=center;verticalAlign=middle;whiteSpace=wrap;rounded=0;" parent="1" vertex="1">
          <mxGeometry x="537" y="1170" width="215" height="30" as="geometry" />
        </mxCell>
        <mxCell id="-hlvr4IsE5EWrB624ele-27" value="&lt;b&gt;&lt;font style=&quot;font-size: 18px; color: rgb(255, 51, 51);&quot;&gt;这两个对象不同，只是刚好属性相同&lt;/font&gt;&lt;/b&gt;" style="text;html=1;align=center;verticalAlign=middle;whiteSpace=wrap;rounded=0;" parent="1" vertex="1">
          <mxGeometry x="537" y="1312" width="215" height="30" as="geometry" />
        </mxCell>
        <mxCell id="-hlvr4IsE5EWrB624ele-28" value="" style="rounded=0;whiteSpace=wrap;html=1;fillColor=#dae8fc;strokeColor=#6c8ebf;" parent="1" vertex="1">
          <mxGeometry x="399" y="1634" width="241" height="315" as="geometry" />
        </mxCell>
        <mxCell id="-hlvr4IsE5EWrB624ele-29" value="" style="rounded=0;whiteSpace=wrap;html=1;fillColor=#d5e8d4;strokeColor=#82b366;" parent="1" vertex="1">
          <mxGeometry x="777" y="1636" width="246" height="315" as="geometry" />
        </mxCell>
        <mxCell id="-hlvr4IsE5EWrB624ele-30" value="" style="outlineConnect=0;dashed=0;verticalLabelPosition=bottom;verticalAlign=top;align=center;html=1;shape=mxgraph.aws3.android;fillColor=#EE472A;gradientColor=none;" parent="1" vertex="1">
          <mxGeometry x="478.5" y="1705" width="73.5" height="84" as="geometry" />
        </mxCell>
        <mxCell id="-hlvr4IsE5EWrB624ele-31" value="&lt;b&gt;&lt;font style=&quot;font-size: 18px;&quot;&gt;Student&lt;/font&gt;&lt;/b&gt;" style="text;html=1;align=center;verticalAlign=middle;whiteSpace=wrap;rounded=0;" parent="1" vertex="1">
          <mxGeometry x="478.5" y="1850" width="90" height="30" as="geometry" />
        </mxCell>
        <mxCell id="-hlvr4IsE5EWrB624ele-32" value="" style="outlineConnect=0;dashed=0;verticalLabelPosition=bottom;verticalAlign=top;align=center;html=1;shape=mxgraph.aws3.android;fillColor=#FFD44F;gradientColor=none;" parent="1" vertex="1">
          <mxGeometry x="831" y="1663" width="73.5" height="84" as="geometry" />
        </mxCell>
        <mxCell id="-hlvr4IsE5EWrB624ele-34" value="&lt;b&gt;&lt;font style=&quot;font-size: 18px;&quot;&gt;Factory&lt;/font&gt;&lt;/b&gt;" style="text;html=1;align=center;verticalAlign=middle;whiteSpace=wrap;rounded=0;" parent="1" vertex="1">
          <mxGeometry x="923" y="1701" width="90" height="30" as="geometry" />
        </mxCell>
        <mxCell id="-hlvr4IsE5EWrB624ele-35" value="" style="outlineConnect=0;dashed=0;verticalLabelPosition=bottom;verticalAlign=top;align=center;html=1;shape=mxgraph.aws3.android;fillColor=#115193;gradientColor=none;" parent="1" vertex="1">
          <mxGeometry x="831" y="1808" width="73.5" height="84" as="geometry" />
        </mxCell>
        <mxCell id="-hlvr4IsE5EWrB624ele-36" value="&lt;b&gt;&lt;font style=&quot;font-size: 18px;&quot;&gt;Student&lt;/font&gt;&lt;/b&gt;" style="text;html=1;align=center;verticalAlign=middle;whiteSpace=wrap;rounded=0;" parent="1" vertex="1">
          <mxGeometry x="921" y="1839" width="90" height="30" as="geometry" />
        </mxCell>
        <mxCell id="-hlvr4IsE5EWrB624ele-37" value="&lt;span style=&quot;font-size: 18px;&quot;&gt;&lt;b&gt;静态工厂方法&lt;/b&gt;&lt;/span&gt;" style="text;html=1;align=center;verticalAlign=middle;whiteSpace=wrap;rounded=0;" parent="1" vertex="1">
          <mxGeometry x="447" y="1604" width="134" height="30" as="geometry" />
        </mxCell>
        <mxCell id="-hlvr4IsE5EWrB624ele-38" value="&lt;span style=&quot;font-size: 18px;&quot;&gt;&lt;b&gt;实例工厂方法&lt;/b&gt;&lt;/span&gt;" style="text;html=1;align=center;verticalAlign=middle;whiteSpace=wrap;rounded=0;" parent="1" vertex="1">
          <mxGeometry x="831" y="1604" width="134" height="30" as="geometry" />
        </mxCell>
        <mxCell id="-hlvr4IsE5EWrB624ele-39" value="&lt;b&gt;&lt;font style=&quot;font-size: 18px;&quot;&gt;静态工厂调用静态工厂方法创建Stu Bean&lt;/font&gt;&lt;/b&gt;" style="text;html=1;align=center;verticalAlign=middle;whiteSpace=wrap;rounded=0;" parent="1" vertex="1">
          <mxGeometry x="440" y="1976" width="180" height="30" as="geometry" />
        </mxCell>
        <mxCell id="-hlvr4IsE5EWrB624ele-40" value="&lt;b&gt;&lt;font style=&quot;font-size: 18px;&quot;&gt;实例工厂的factory这个Bean是为了创建Stu Bean而创建的&lt;/font&gt;&lt;/b&gt;" style="text;html=1;align=center;verticalAlign=middle;whiteSpace=wrap;rounded=0;" parent="1" vertex="1">
          <mxGeometry x="825" y="1982" width="180" height="30" as="geometry" />
        </mxCell>
        <mxCell id="-hlvr4IsE5EWrB624ele-41" value="" style="rounded=0;whiteSpace=wrap;html=1;fillColor=#dae8fc;strokeColor=#6c8ebf;" parent="1" vertex="1">
          <mxGeometry x="564" y="2109" width="414" height="495" as="geometry" />
        </mxCell>
        <mxCell id="-hlvr4IsE5EWrB624ele-46" value="" style="shape=image;html=1;verticalAlign=top;verticalLabelPosition=bottom;labelBackgroundColor=#ffffff;imageAspect=0;aspect=fixed;image=https://icons.diagrams.net/icon-cache1/Business___Finance_glyph_V3-2605/135_mill_factory_business_smoke-1396.svg;" parent="1" vertex="1">
          <mxGeometry x="558" y="2113" width="194" height="194" as="geometry" />
        </mxCell>
        <mxCell id="-hlvr4IsE5EWrB624ele-47" value="&lt;b&gt;&lt;font style=&quot;font-size: 24px;&quot;&gt;BeanFactory工厂&lt;/font&gt;&lt;/b&gt;" style="text;html=1;align=center;verticalAlign=middle;whiteSpace=wrap;rounded=0;" parent="1" vertex="1">
          <mxGeometry x="799" y="2142" width="90" height="30" as="geometry" />
        </mxCell>
        <mxCell id="-hlvr4IsE5EWrB624ele-48" value="&lt;font style=&quot;font-size: 18px;&quot;&gt;桌子&lt;/font&gt;&lt;div&gt;&lt;font size=&quot;3&quot;&gt;desk&lt;/font&gt;&lt;/div&gt;" style="rounded=0;whiteSpace=wrap;html=1;fillColor=#008a00;strokeColor=#005700;fontColor=#ffffff;" parent="1" vertex="1">
          <mxGeometry x="604" y="2335" width="120" height="60" as="geometry" />
        </mxCell>
        <mxCell id="-hlvr4IsE5EWrB624ele-49" value="&lt;span style=&quot;font-size: 18px;&quot;&gt;椅子&lt;/span&gt;&lt;br&gt;&lt;div&gt;&lt;font size=&quot;3&quot;&gt;chair&lt;/font&gt;&lt;/div&gt;" style="rounded=0;whiteSpace=wrap;html=1;fillColor=#d80073;strokeColor=#A50040;fontColor=#ffffff;" parent="1" vertex="1">
          <mxGeometry x="606" y="2444" width="120" height="60" as="geometry" />
        </mxCell>
        <mxCell id="-hlvr4IsE5EWrB624ele-51" value="&lt;font style=&quot;font-size: 18px;&quot;&gt;桌子&lt;/font&gt;&lt;div&gt;&lt;font size=&quot;3&quot;&gt;refrigerator&lt;/font&gt;&lt;/div&gt;" style="rounded=0;whiteSpace=wrap;html=1;fillColor=#6a00ff;strokeColor=#3700CC;fontColor=#ffffff;" parent="1" vertex="1">
          <mxGeometry x="795" y="2335" width="120" height="60" as="geometry" />
        </mxCell>
        <mxCell id="-hlvr4IsE5EWrB624ele-52" value="&lt;span style=&quot;font-size: 18px;&quot;&gt;门&lt;/span&gt;&lt;div&gt;&lt;span style=&quot;font-size: 18px;&quot;&gt;door&lt;/span&gt;&lt;/div&gt;" style="rounded=0;whiteSpace=wrap;html=1;fillColor=#e51400;strokeColor=#B20000;fontColor=#ffffff;" parent="1" vertex="1">
          <mxGeometry x="799" y="2444" width="120" height="60" as="geometry" />
        </mxCell>
        <mxCell id="-hlvr4IsE5EWrB624ele-56" style="edgeStyle=orthogonalEdgeStyle;rounded=0;orthogonalLoop=1;jettySize=auto;html=1;entryX=0;entryY=0.5;entryDx=0;entryDy=0;" parent="1" source="-hlvr4IsE5EWrB624ele-53" target="-hlvr4IsE5EWrB624ele-55" edge="1">
          <mxGeometry relative="1" as="geometry" />
        </mxCell>
        <mxCell id="-hlvr4IsE5EWrB624ele-53" value="&lt;b&gt;&lt;font style=&quot;font-size: 24px;&quot;&gt;FactoryBean生产线&lt;/font&gt;&lt;/b&gt;" style="rounded=0;whiteSpace=wrap;html=1;fillColor=#e3c800;strokeColor=#B09500;fontColor=#000000;" parent="1" vertex="1">
          <mxGeometry x="606" y="2527" width="322" height="64" as="geometry" />
        </mxCell>
        <mxCell id="-hlvr4IsE5EWrB624ele-55" value="&lt;font style=&quot;font-size: 18px;&quot;&gt;&lt;b&gt;产品&lt;/b&gt;&lt;/font&gt;" style="ellipse;whiteSpace=wrap;html=1;aspect=fixed;fillColor=#d5e8d4;strokeColor=#82b366;" parent="1" vertex="1">
          <mxGeometry x="1072" y="2519" width="80" height="80" as="geometry" />
        </mxCell>
        <mxCell id="-hlvr4IsE5EWrB624ele-62" value="" style="shape=doubleArrow;whiteSpace=wrap;html=1;" parent="1" vertex="1">
          <mxGeometry x="367" y="2335" width="175" height="36" as="geometry" />
        </mxCell>
        <mxCell id="-hlvr4IsE5EWrB624ele-63" value="&lt;b&gt;&lt;font style=&quot;font-size: 18px;&quot;&gt;获取desk&lt;/font&gt;&lt;/b&gt;" style="text;html=1;align=center;verticalAlign=middle;whiteSpace=wrap;rounded=0;" parent="1" vertex="1">
          <mxGeometry x="406" y="2316" width="90" height="30" as="geometry" />
        </mxCell>
        <mxCell id="-hlvr4IsE5EWrB624ele-64" value="&lt;b&gt;&lt;font style=&quot;font-size: 18px;&quot;&gt;返回deskBean&lt;/font&gt;&lt;/b&gt;" style="text;html=1;align=center;verticalAlign=middle;whiteSpace=wrap;rounded=0;" parent="1" vertex="1">
          <mxGeometry x="393" y="2371" width="144" height="30" as="geometry" />
        </mxCell>
        <mxCell id="-hlvr4IsE5EWrB624ele-65" value="Actor" style="shape=umlActor;verticalLabelPosition=bottom;verticalAlign=top;html=1;outlineConnect=0;" parent="1" vertex="1">
          <mxGeometry x="317" y="2323" width="30" height="60" as="geometry" />
        </mxCell>
        <mxCell id="-hlvr4IsE5EWrB624ele-66" value="Actor" style="shape=umlActor;verticalLabelPosition=bottom;verticalAlign=top;html=1;outlineConnect=0;" parent="1" vertex="1">
          <mxGeometry x="317" y="2432" width="30" height="60" as="geometry" />
        </mxCell>
        <mxCell id="-hlvr4IsE5EWrB624ele-67" value="" style="shape=doubleArrow;whiteSpace=wrap;html=1;" parent="1" vertex="1">
          <mxGeometry x="367" y="2447" width="175" height="36" as="geometry" />
        </mxCell>
        <mxCell id="-hlvr4IsE5EWrB624ele-68" value="&lt;b&gt;&lt;font style=&quot;font-size: 18px;&quot;&gt;获取factoryBean&lt;/font&gt;&lt;/b&gt;" style="text;html=1;align=center;verticalAlign=middle;whiteSpace=wrap;rounded=0;" parent="1" vertex="1">
          <mxGeometry x="390" y="2422" width="152" height="30" as="geometry" />
        </mxCell>
        <mxCell id="-hlvr4IsE5EWrB624ele-69" value="&lt;b&gt;&lt;font style=&quot;font-size: 18px;&quot;&gt;返回product&lt;/font&gt;&lt;/b&gt;" style="text;html=1;align=center;verticalAlign=middle;whiteSpace=wrap;rounded=0;" parent="1" vertex="1">
          <mxGeometry x="399" y="2483" width="128" height="30" as="geometry" />
        </mxCell>
        <mxCell id="-hlvr4IsE5EWrB624ele-70" value="Actor" style="shape=umlActor;verticalLabelPosition=bottom;verticalAlign=top;html=1;outlineConnect=0;" parent="1" vertex="1">
          <mxGeometry x="317" y="2536" width="30" height="60" as="geometry" />
        </mxCell>
        <mxCell id="-hlvr4IsE5EWrB624ele-71" value="" style="shape=doubleArrow;whiteSpace=wrap;html=1;" parent="1" vertex="1">
          <mxGeometry x="367.5" y="2548" width="175" height="36" as="geometry" />
        </mxCell>
        <mxCell id="-hlvr4IsE5EWrB624ele-72" value="&lt;b&gt;&lt;font style=&quot;font-size: 18px;&quot;&gt;获取&amp;amp;factoryBean&lt;/font&gt;&lt;/b&gt;" style="text;html=1;align=center;verticalAlign=middle;whiteSpace=wrap;rounded=0;" parent="1" vertex="1">
          <mxGeometry x="383.5" y="2525" width="165" height="30" as="geometry" />
        </mxCell>
        <mxCell id="-hlvr4IsE5EWrB624ele-73" value="&lt;b&gt;&lt;font style=&quot;font-size: 18px;&quot;&gt;返回factoryBean&lt;/font&gt;&lt;/b&gt;" style="text;html=1;align=center;verticalAlign=middle;whiteSpace=wrap;rounded=0;" parent="1" vertex="1">
          <mxGeometry x="392" y="2578" width="128" height="30" as="geometry" />
        </mxCell>
        <mxCell id="LF5kl5YUqEZj9RJo4e34-8" style="edgeStyle=orthogonalEdgeStyle;rounded=0;orthogonalLoop=1;jettySize=auto;html=1;entryX=0;entryY=0.5;entryDx=0;entryDy=0;" parent="1" source="LF5kl5YUqEZj9RJo4e34-1" target="LF5kl5YUqEZj9RJo4e34-2" edge="1">
          <mxGeometry relative="1" as="geometry" />
        </mxCell>
        <mxCell id="LF5kl5YUqEZj9RJo4e34-1" value="阶段一：加载Bean定义信息" style="rounded=1;whiteSpace=wrap;html=1;fillColor=#dae8fc;strokeColor=#6c8ebf;" parent="1" vertex="1">
          <mxGeometry x="393" y="2931" width="120" height="60" as="geometry" />
        </mxCell>
        <mxCell id="LF5kl5YUqEZj9RJo4e34-9" style="edgeStyle=orthogonalEdgeStyle;rounded=0;orthogonalLoop=1;jettySize=auto;html=1;entryX=0;entryY=0.5;entryDx=0;entryDy=0;" parent="1" source="LF5kl5YUqEZj9RJo4e34-2" target="LF5kl5YUqEZj9RJo4e34-5" edge="1">
          <mxGeometry relative="1" as="geometry" />
        </mxCell>
        <mxCell id="LF5kl5YUqEZj9RJo4e34-2" value="阶段二：实例化Bean阶段" style="rounded=1;whiteSpace=wrap;html=1;fillColor=#d5e8d4;strokeColor=#82b366;" parent="1" vertex="1">
          <mxGeometry x="644" y="2931" width="120" height="60" as="geometry" />
        </mxCell>
        <mxCell id="LF5kl5YUqEZj9RJo4e34-21" style="edgeStyle=orthogonalEdgeStyle;rounded=0;orthogonalLoop=1;jettySize=auto;html=1;entryX=1;entryY=0.5;entryDx=0;entryDy=0;" parent="1" source="LF5kl5YUqEZj9RJo4e34-3" target="LF5kl5YUqEZj9RJo4e34-7" edge="1">
          <mxGeometry relative="1" as="geometry" />
        </mxCell>
        <mxCell id="LF5kl5YUqEZj9RJo4e34-3" value="阶段五：获取和使用Bean" style="rounded=1;whiteSpace=wrap;html=1;fillColor=#e1d5e7;strokeColor=#9673a6;" parent="1" vertex="1">
          <mxGeometry x="644" y="3070" width="120" height="60" as="geometry" />
        </mxCell>
        <mxCell id="LF5kl5YUqEZj9RJo4e34-11" style="edgeStyle=orthogonalEdgeStyle;rounded=0;orthogonalLoop=1;jettySize=auto;html=1;" parent="1" source="LF5kl5YUqEZj9RJo4e34-4" target="LF5kl5YUqEZj9RJo4e34-3" edge="1">
          <mxGeometry relative="1" as="geometry" />
        </mxCell>
        <mxCell id="LF5kl5YUqEZj9RJo4e34-4" value="阶段四：调用Bean初始化方法" style="rounded=1;whiteSpace=wrap;html=1;fillColor=#d80073;strokeColor=#A50040;fontColor=#ffffff;" parent="1" vertex="1">
          <mxGeometry x="952" y="3070" width="120" height="60" as="geometry" />
        </mxCell>
        <mxCell id="LF5kl5YUqEZj9RJo4e34-10" style="edgeStyle=orthogonalEdgeStyle;rounded=0;orthogonalLoop=1;jettySize=auto;html=1;entryX=0.5;entryY=0;entryDx=0;entryDy=0;" parent="1" source="LF5kl5YUqEZj9RJo4e34-5" target="LF5kl5YUqEZj9RJo4e34-4" edge="1">
          <mxGeometry relative="1" as="geometry" />
        </mxCell>
        <mxCell id="LF5kl5YUqEZj9RJo4e34-5" value="阶段三：设置Bean属性阶段" style="rounded=1;whiteSpace=wrap;html=1;fillColor=#f8cecc;strokeColor=#b85450;" parent="1" vertex="1">
          <mxGeometry x="952" y="2931" width="120" height="60" as="geometry" />
        </mxCell>
        <mxCell id="LF5kl5YUqEZj9RJo4e34-7" value="阶段六：调用Bean销毁方法阶段" style="rounded=1;whiteSpace=wrap;html=1;fillColor=#008a00;strokeColor=#005700;fontColor=#ffffff;" parent="1" vertex="1">
          <mxGeometry x="393" y="3070" width="120" height="60" as="geometry" />
        </mxCell>
        <mxCell id="LF5kl5YUqEZj9RJo4e34-13" value="&lt;div class=&quot;lake-content&quot;&gt;&lt;span style=&quot;font-size: 14px&quot; class=&quot;ne-text&quot;&gt;BeanFactoryPostProcessor&lt;/span&gt;&lt;/div&gt;" style="shape=parallelogram;perimeter=parallelogramPerimeter;whiteSpace=wrap;html=1;fixedSize=1;fillColor=#f8cecc;strokeColor=#b85450;gradientColor=#ea6b66;" parent="1" vertex="1">
          <mxGeometry x="461" y="2678" width="204" height="60" as="geometry" />
        </mxCell>
        <mxCell id="LF5kl5YUqEZj9RJo4e34-19" style="edgeStyle=orthogonalEdgeStyle;rounded=0;orthogonalLoop=1;jettySize=auto;html=1;dashed=1;" parent="1" edge="1">
          <mxGeometry relative="1" as="geometry">
            <mxPoint x="572" y="2963.600067138672" as="targetPoint" />
            <mxPoint x="572" y="2867" as="sourcePoint" />
          </mxGeometry>
        </mxCell>
        <mxCell id="LF5kl5YUqEZj9RJo4e34-29" style="rounded=0;orthogonalLoop=1;jettySize=auto;html=1;entryX=0.5;entryY=1;entryDx=0;entryDy=0;" parent="1" source="LF5kl5YUqEZj9RJo4e34-22" target="LF5kl5YUqEZj9RJo4e34-26" edge="1">
          <mxGeometry relative="1" as="geometry" />
        </mxCell>
        <mxCell id="LF5kl5YUqEZj9RJo4e34-31" style="rounded=0;orthogonalLoop=1;jettySize=auto;html=1;entryX=1;entryY=0.5;entryDx=0;entryDy=0;" parent="1" source="LF5kl5YUqEZj9RJo4e34-22" target="LF5kl5YUqEZj9RJo4e34-30" edge="1">
          <mxGeometry relative="1" as="geometry" />
        </mxCell>
        <mxCell id="LF5kl5YUqEZj9RJo4e34-22" value="&lt;div class=&quot;lake-content&quot;&gt;&lt;span style=&quot;font-size: 14px&quot; class=&quot;ne-text&quot;&gt;BeanPostProcessor&lt;/span&gt;&lt;/div&gt;" style="shape=parallelogram;perimeter=parallelogramPerimeter;whiteSpace=wrap;html=1;fixedSize=1;fillColor=#f8cecc;strokeColor=#b85450;gradientColor=#ea6b66;" parent="1" vertex="1">
          <mxGeometry x="1204" y="3146" width="168" height="60" as="geometry" />
        </mxCell>
        <mxCell id="LF5kl5YUqEZj9RJo4e34-32" style="edgeStyle=orthogonalEdgeStyle;rounded=0;orthogonalLoop=1;jettySize=auto;html=1;dashed=1;" parent="1" source="LF5kl5YUqEZj9RJo4e34-26" edge="1">
          <mxGeometry relative="1" as="geometry">
            <mxPoint x="1010.7999877929688" y="3024" as="targetPoint" />
          </mxGeometry>
        </mxCell>
        <mxCell id="LF5kl5YUqEZj9RJo4e34-26" value="&lt;div class=&quot;lake-content&quot;&gt;&lt;span style=&quot;font-size: 14px&quot; class=&quot;ne-text&quot;&gt;postProcessBeforeInitialization()&lt;/span&gt;&lt;/div&gt;" style="rounded=0;whiteSpace=wrap;html=1;fillColor=#ffcc99;strokeColor=#36393d;" parent="1" vertex="1">
          <mxGeometry x="1147" y="2994" width="231" height="60" as="geometry" />
        </mxCell>
        <mxCell id="LF5kl5YUqEZj9RJo4e34-27" value="&lt;span style=&quot;font-size: 14px;&quot;&gt;postProcessBeanFactory&lt;/span&gt;" style="rounded=0;whiteSpace=wrap;html=1;fillColor=#ffcc99;strokeColor=#36393d;" parent="1" vertex="1">
          <mxGeometry x="478.5" y="2807" width="182" height="60" as="geometry" />
        </mxCell>
        <mxCell id="LF5kl5YUqEZj9RJo4e34-28" style="edgeStyle=orthogonalEdgeStyle;rounded=0;orthogonalLoop=1;jettySize=auto;html=1;entryX=0.463;entryY=-0.003;entryDx=0;entryDy=0;entryPerimeter=0;" parent="1" source="LF5kl5YUqEZj9RJo4e34-13" target="LF5kl5YUqEZj9RJo4e34-27" edge="1">
          <mxGeometry relative="1" as="geometry" />
        </mxCell>
        <mxCell id="LF5kl5YUqEZj9RJo4e34-33" style="edgeStyle=orthogonalEdgeStyle;rounded=0;orthogonalLoop=1;jettySize=auto;html=1;dashed=1;" parent="1" source="LF5kl5YUqEZj9RJo4e34-30" edge="1">
          <mxGeometry relative="1" as="geometry">
            <mxPoint x="895.5" y="3103.5999450683594" as="targetPoint" />
          </mxGeometry>
        </mxCell>
        <mxCell id="LF5kl5YUqEZj9RJo4e34-30" value="&lt;div class=&quot;lake-content&quot;&gt;&lt;div class=&quot;lake-content&quot;&gt;&lt;span style=&quot;font-size: 14px&quot; class=&quot;ne-text&quot;&gt;postProcessorAfterInitialization()&lt;/span&gt;&lt;/div&gt;&lt;/div&gt;" style="rounded=0;whiteSpace=wrap;html=1;fillColor=#ffcc99;strokeColor=#36393d;" parent="1" vertex="1">
          <mxGeometry x="780" y="3209" width="231" height="60" as="geometry" />
        </mxCell>
      </root>
    </mxGraphModel>
  </diagram>
  <diagram id="PUbNVtW_53cSGbBqxkej" name="第 3 页">
    <mxGraphModel dx="1477" dy="820" grid="1" gridSize="25" guides="1" tooltips="1" connect="1" arrows="1" fold="1" page="1" pageScale="1" pageWidth="3300" pageHeight="4681" math="0" shadow="0">
      <root>
        <mxCell id="0" />
        <mxCell id="1" parent="0" />
        <mxCell id="XzZFGofTQJ054ZmlWhqK-58" value="" style="rounded=0;whiteSpace=wrap;html=1;fillColor=#b1ddf0;strokeColor=#10739e;" vertex="1" parent="1">
          <mxGeometry x="1363.5" y="296" width="271" height="334" as="geometry" />
        </mxCell>
        <mxCell id="XzZFGofTQJ054ZmlWhqK-56" value="&lt;span style=&quot;font-size: 16px;&quot;&gt;&lt;b&gt;&amp;nbsp;&lt;/b&gt;&lt;/span&gt;" style="rounded=0;whiteSpace=wrap;html=1;fillColor=#ffe6cc;strokeColor=#d79b00;" vertex="1" parent="1">
          <mxGeometry x="540" y="96" width="758" height="527" as="geometry" />
        </mxCell>
        <mxCell id="XzZFGofTQJ054ZmlWhqK-1" value="" style="rounded=1;whiteSpace=wrap;html=1;fillColor=#d5e8d4;strokeColor=#82b366;" vertex="1" parent="1">
          <mxGeometry x="264" y="148" width="209" height="418" as="geometry" />
        </mxCell>
        <mxCell id="XzZFGofTQJ054ZmlWhqK-2" value="" style="rounded=0;whiteSpace=wrap;html=1;fillColor=#fff2cc;strokeColor=#d6b656;" vertex="1" parent="1">
          <mxGeometry x="302" y="243" width="120" height="60" as="geometry" />
        </mxCell>
        <mxCell id="XzZFGofTQJ054ZmlWhqK-3" value="&lt;b&gt;&lt;font style=&quot;font-size: 18px;&quot;&gt;业务类&lt;/font&gt;&lt;/b&gt;" style="text;html=1;align=center;verticalAlign=middle;whiteSpace=wrap;rounded=0;" vertex="1" parent="1">
          <mxGeometry x="304.5" y="110" width="128" height="38" as="geometry" />
        </mxCell>
        <mxCell id="XzZFGofTQJ054ZmlWhqK-4" value="" style="rounded=0;whiteSpace=wrap;html=1;fillColor=#fff2cc;strokeColor=#d6b656;" vertex="1" parent="1">
          <mxGeometry x="302" y="338" width="120" height="60" as="geometry" />
        </mxCell>
        <mxCell id="XzZFGofTQJ054ZmlWhqK-5" value="" style="rounded=0;whiteSpace=wrap;html=1;fillColor=#fff2cc;strokeColor=#d6b656;" vertex="1" parent="1">
          <mxGeometry x="302" y="433" width="120" height="60" as="geometry" />
        </mxCell>
        <mxCell id="XzZFGofTQJ054ZmlWhqK-6" value="&lt;b&gt;&lt;font style=&quot;font-size: 18px;&quot;&gt;方法1&lt;/font&gt;&lt;/b&gt;" style="text;html=1;align=center;verticalAlign=middle;whiteSpace=wrap;rounded=0;" vertex="1" parent="1">
          <mxGeometry x="317" y="213" width="90" height="30" as="geometry" />
        </mxCell>
        <mxCell id="XzZFGofTQJ054ZmlWhqK-7" value="&lt;b&gt;&lt;font style=&quot;font-size: 18px;&quot;&gt;方法2&lt;/font&gt;&lt;/b&gt;" style="text;html=1;align=center;verticalAlign=middle;whiteSpace=wrap;rounded=0;" vertex="1" parent="1">
          <mxGeometry x="317" y="303" width="90" height="30" as="geometry" />
        </mxCell>
        <mxCell id="XzZFGofTQJ054ZmlWhqK-8" value="&lt;b&gt;&lt;font style=&quot;font-size: 18px;&quot;&gt;方法3&lt;/font&gt;&lt;/b&gt;" style="text;html=1;align=center;verticalAlign=middle;whiteSpace=wrap;rounded=0;" vertex="1" parent="1">
          <mxGeometry x="317" y="403" width="90" height="30" as="geometry" />
        </mxCell>
        <mxCell id="XzZFGofTQJ054ZmlWhqK-35" style="edgeStyle=orthogonalEdgeStyle;rounded=0;orthogonalLoop=1;jettySize=auto;html=1;entryX=0;entryY=0.5;entryDx=0;entryDy=0;" edge="1" parent="1" source="XzZFGofTQJ054ZmlWhqK-10" target="XzZFGofTQJ054ZmlWhqK-24">
          <mxGeometry relative="1" as="geometry" />
        </mxCell>
        <mxCell id="XzZFGofTQJ054ZmlWhqK-10" value="" style="rounded=1;whiteSpace=wrap;html=1;fillColor=#dae8fc;strokeColor=#6c8ebf;" vertex="1" parent="1">
          <mxGeometry x="594" y="186" width="266" height="380" as="geometry" />
        </mxCell>
        <mxCell id="XzZFGofTQJ054ZmlWhqK-11" value="&lt;b&gt;&lt;font style=&quot;font-size: 18px;&quot;&gt;事务增强&lt;/font&gt;&lt;/b&gt;" style="text;html=1;align=center;verticalAlign=middle;whiteSpace=wrap;rounded=0;" vertex="1" parent="1">
          <mxGeometry x="682" y="148" width="90" height="30" as="geometry" />
        </mxCell>
        <mxCell id="XzZFGofTQJ054ZmlWhqK-12" value="&lt;b&gt;&lt;font style=&quot;font-size: 18px;&quot;&gt;开启事务(前置操作)&lt;/font&gt;&lt;/b&gt;" style="text;html=1;align=center;verticalAlign=middle;whiteSpace=wrap;rounded=0;" vertex="1" parent="1">
          <mxGeometry x="632" y="243" width="190" height="30" as="geometry" />
        </mxCell>
        <mxCell id="XzZFGofTQJ054ZmlWhqK-13" value="&lt;b&gt;&lt;font style=&quot;font-size: 18px;&quot;&gt;事务代码&lt;/font&gt;&lt;/b&gt;" style="text;html=1;align=center;verticalAlign=middle;whiteSpace=wrap;rounded=0;" vertex="1" parent="1">
          <mxGeometry x="660" y="303" width="90" height="30" as="geometry" />
        </mxCell>
        <mxCell id="XzZFGofTQJ054ZmlWhqK-14" value="&lt;b&gt;&lt;font style=&quot;font-size: 18px;&quot;&gt;提交事务(核心代码完成后执行)&lt;/font&gt;&lt;/b&gt;" style="text;html=1;align=center;verticalAlign=middle;whiteSpace=wrap;rounded=0;" vertex="1" parent="1">
          <mxGeometry x="603" y="353" width="266" height="30" as="geometry" />
        </mxCell>
        <mxCell id="XzZFGofTQJ054ZmlWhqK-15" value="&lt;b&gt;&lt;font style=&quot;font-size: 18px;&quot;&gt;事务回滚(发生异常回滚)&lt;/font&gt;&lt;/b&gt;" style="text;html=1;align=center;verticalAlign=middle;whiteSpace=wrap;rounded=0;" vertex="1" parent="1">
          <mxGeometry x="624" y="433" width="206" height="30" as="geometry" />
        </mxCell>
        <mxCell id="XzZFGofTQJ054ZmlWhqK-16" value="&lt;b&gt;&lt;font style=&quot;font-size: 27px; color: rgb(255, 51, 51);&quot;&gt;spring-tx&lt;/font&gt;&lt;/b&gt;" style="text;html=1;align=center;verticalAlign=middle;whiteSpace=wrap;rounded=0;" vertex="1" parent="1">
          <mxGeometry x="493.5" y="44" width="152" height="30" as="geometry" />
        </mxCell>
        <mxCell id="XzZFGofTQJ054ZmlWhqK-18" value="&lt;b&gt;&lt;font style=&quot;font-size: 18px;&quot;&gt;提供事务操作的代码不同&lt;/font&gt;&lt;/b&gt;" style="text;html=1;align=center;verticalAlign=middle;whiteSpace=wrap;rounded=0;" vertex="1" parent="1">
          <mxGeometry x="22" y="178" width="242" height="30" as="geometry" />
        </mxCell>
        <mxCell id="XzZFGofTQJ054ZmlWhqK-19" value="&lt;b&gt;&lt;font style=&quot;font-size: 18px;&quot;&gt;jdbc&lt;/font&gt;&lt;/b&gt;" style="text;html=1;align=center;verticalAlign=middle;whiteSpace=wrap;rounded=0;" vertex="1" parent="1">
          <mxGeometry x="66" y="214" width="90" height="30" as="geometry" />
        </mxCell>
        <mxCell id="XzZFGofTQJ054ZmlWhqK-20" value="&lt;b&gt;&lt;font style=&quot;font-size: 18px;&quot;&gt;mybatis&lt;/font&gt;&lt;/b&gt;" style="text;html=1;align=center;verticalAlign=middle;whiteSpace=wrap;rounded=0;" vertex="1" parent="1">
          <mxGeometry x="67" y="273" width="90" height="30" as="geometry" />
        </mxCell>
        <mxCell id="XzZFGofTQJ054ZmlWhqK-21" value="&lt;b&gt;&lt;font style=&quot;font-size: 18px;&quot;&gt;jdbcTemplate&lt;/font&gt;&lt;/b&gt;" style="text;html=1;align=center;verticalAlign=middle;whiteSpace=wrap;rounded=0;" vertex="1" parent="1">
          <mxGeometry x="68" y="342" width="90" height="30" as="geometry" />
        </mxCell>
        <mxCell id="XzZFGofTQJ054ZmlWhqK-24" value="" style="rounded=1;whiteSpace=wrap;html=1;fillColor=#e1d5e7;strokeColor=#9673a6;" vertex="1" parent="1">
          <mxGeometry x="946" y="202.5" width="242" height="347" as="geometry" />
        </mxCell>
        <mxCell id="XzZFGofTQJ054ZmlWhqK-25" value="&lt;span style=&quot;font-size: 18px;&quot;&gt;&lt;b&gt;事务管理器的接口&lt;/b&gt;&lt;/span&gt;" style="text;html=1;align=center;verticalAlign=middle;whiteSpace=wrap;rounded=0;" vertex="1" parent="1">
          <mxGeometry x="979" y="114" width="176" height="30" as="geometry" />
        </mxCell>
        <mxCell id="XzZFGofTQJ054ZmlWhqK-26" value="&lt;b&gt;&lt;font style=&quot;font-size: 18px;&quot;&gt;具体提供事务方法&lt;/font&gt;&lt;/b&gt;" style="text;html=1;align=center;verticalAlign=middle;whiteSpace=wrap;rounded=0;" vertex="1" parent="1">
          <mxGeometry x="989" y="156" width="166" height="30" as="geometry" />
        </mxCell>
        <mxCell id="XzZFGofTQJ054ZmlWhqK-27" value="&lt;b&gt;&lt;font style=&quot;font-size: 18px;&quot;&gt;start()开启事务&lt;/font&gt;&lt;/b&gt;" style="text;html=1;align=center;verticalAlign=middle;whiteSpace=wrap;rounded=0;" vertex="1" parent="1">
          <mxGeometry x="979" y="258" width="165" height="30" as="geometry" />
        </mxCell>
        <mxCell id="XzZFGofTQJ054ZmlWhqK-28" value="&lt;b&gt;&lt;font style=&quot;font-size: 18px;&quot;&gt;commint()提交事务&lt;/font&gt;&lt;/b&gt;" style="text;html=1;align=center;verticalAlign=middle;whiteSpace=wrap;rounded=0;" vertex="1" parent="1">
          <mxGeometry x="990" y="342" width="165" height="30" as="geometry" />
        </mxCell>
        <mxCell id="XzZFGofTQJ054ZmlWhqK-29" value="&lt;b&gt;&lt;font style=&quot;font-size: 18px;&quot;&gt;rollback()回滚事务&lt;/font&gt;&lt;/b&gt;" style="text;html=1;align=center;verticalAlign=middle;whiteSpace=wrap;rounded=0;" vertex="1" parent="1">
          <mxGeometry x="984.5" y="433" width="165" height="30" as="geometry" />
        </mxCell>
        <mxCell id="XzZFGofTQJ054ZmlWhqK-30" value="&lt;b&gt;&lt;font style=&quot;font-size: 18px; color: rgb(255, 51, 51);&quot;&gt;事务管理器的接口&lt;/font&gt;&lt;/b&gt;" style="text;html=1;align=center;verticalAlign=middle;whiteSpace=wrap;rounded=0;" vertex="1" parent="1">
          <mxGeometry x="643.5" y="202.5" width="167" height="30" as="geometry" />
        </mxCell>
        <mxCell id="XzZFGofTQJ054ZmlWhqK-31" value="&lt;b&gt;&lt;font style=&quot;font-size: 18px; color: rgb(255, 51, 51);&quot;&gt;接口.start()&lt;/font&gt;&lt;/b&gt;" style="text;html=1;align=center;verticalAlign=middle;whiteSpace=wrap;rounded=0;" vertex="1" parent="1">
          <mxGeometry x="645.5" y="273" width="119" height="30" as="geometry" />
        </mxCell>
        <mxCell id="XzZFGofTQJ054ZmlWhqK-32" value="&lt;b&gt;&lt;font style=&quot;font-size: 18px; color: rgb(255, 51, 51);&quot;&gt;接口.commit()&lt;/font&gt;&lt;/b&gt;" style="text;html=1;align=center;verticalAlign=middle;whiteSpace=wrap;rounded=0;" vertex="1" parent="1">
          <mxGeometry x="633" y="383" width="165" height="30" as="geometry" />
        </mxCell>
        <mxCell id="XzZFGofTQJ054ZmlWhqK-33" value="&lt;b&gt;&lt;font style=&quot;font-size: 18px; color: rgb(255, 51, 51);&quot;&gt;接口.rollback()&lt;/font&gt;&lt;/b&gt;" style="text;html=1;align=center;verticalAlign=middle;whiteSpace=wrap;rounded=0;" vertex="1" parent="1">
          <mxGeometry x="645.5" y="484" width="165" height="30" as="geometry" />
        </mxCell>
        <mxCell id="XzZFGofTQJ054ZmlWhqK-34" style="edgeStyle=orthogonalEdgeStyle;rounded=0;orthogonalLoop=1;jettySize=auto;html=1;entryX=1.053;entryY=0.545;entryDx=0;entryDy=0;entryPerimeter=0;" edge="1" parent="1" source="XzZFGofTQJ054ZmlWhqK-10" target="XzZFGofTQJ054ZmlWhqK-1">
          <mxGeometry relative="1" as="geometry" />
        </mxCell>
        <mxCell id="XzZFGofTQJ054ZmlWhqK-38" style="rounded=0;orthogonalLoop=1;jettySize=auto;html=1;entryX=1;entryY=0.5;entryDx=0;entryDy=0;" edge="1" parent="1" source="XzZFGofTQJ054ZmlWhqK-36" target="XzZFGofTQJ054ZmlWhqK-24">
          <mxGeometry relative="1" as="geometry" />
        </mxCell>
        <mxCell id="XzZFGofTQJ054ZmlWhqK-42" value="&lt;font style=&quot;font-size: 21px;&quot;&gt;实现&lt;/font&gt;" style="edgeLabel;html=1;align=center;verticalAlign=middle;resizable=0;points=[];" vertex="1" connectable="0" parent="XzZFGofTQJ054ZmlWhqK-38">
          <mxGeometry x="-0.0697" y="-4" relative="1" as="geometry">
            <mxPoint x="-1" as="offset" />
          </mxGeometry>
        </mxCell>
        <mxCell id="XzZFGofTQJ054ZmlWhqK-36" value="" style="rounded=1;whiteSpace=wrap;html=1;fillColor=#f8cecc;strokeColor=#b85450;gradientColor=#ea6b66;" vertex="1" parent="1">
          <mxGeometry x="1408" y="148" width="176" height="94" as="geometry" />
        </mxCell>
        <mxCell id="XzZFGofTQJ054ZmlWhqK-37" value="&lt;b&gt;&lt;font style=&quot;font-size: 18px;&quot;&gt;DataSourceTransactionManager&lt;/font&gt;&lt;/b&gt;" style="text;html=1;align=center;verticalAlign=middle;whiteSpace=wrap;rounded=0;" vertex="1" parent="1">
          <mxGeometry x="1357" y="110" width="222" height="30" as="geometry" />
        </mxCell>
        <mxCell id="XzZFGofTQJ054ZmlWhqK-39" value="&lt;b&gt;&lt;font style=&quot;font-size: 18px;&quot;&gt;Connection方式&lt;/font&gt;&lt;/b&gt;" style="text;html=1;align=center;verticalAlign=middle;whiteSpace=wrap;rounded=0;" vertex="1" parent="1">
          <mxGeometry x="1363.5" y="156" width="265" height="30" as="geometry" />
        </mxCell>
        <mxCell id="XzZFGofTQJ054ZmlWhqK-40" value="&lt;b&gt;&lt;font style=&quot;font-size: 18px;&quot;&gt;mybatis&amp;nbsp; jdbc&lt;/font&gt;&lt;/b&gt;" style="text;html=1;align=center;verticalAlign=middle;whiteSpace=wrap;rounded=0;" vertex="1" parent="1">
          <mxGeometry x="1451" y="202.5" width="90" height="30" as="geometry" />
        </mxCell>
        <mxCell id="XzZFGofTQJ054ZmlWhqK-43" value="" style="rounded=1;whiteSpace=wrap;html=1;fillColor=#f8cecc;strokeColor=#b85450;gradientColor=#ea6b66;" vertex="1" parent="1">
          <mxGeometry x="1408" y="338" width="176" height="94" as="geometry" />
        </mxCell>
        <mxCell id="XzZFGofTQJ054ZmlWhqK-44" value="&lt;b&gt;&lt;font style=&quot;font-size: 18px;&quot;&gt;JpaTM&lt;/font&gt;&lt;/b&gt;" style="text;html=1;align=center;verticalAlign=middle;whiteSpace=wrap;rounded=0;" vertex="1" parent="1">
          <mxGeometry x="1452" y="304" width="90" height="30" as="geometry" />
        </mxCell>
        <mxCell id="XzZFGofTQJ054ZmlWhqK-45" value="&lt;b&gt;&lt;font style=&quot;font-size: 18px;&quot;&gt;Jpa&lt;/font&gt;&lt;/b&gt;" style="text;html=1;align=center;verticalAlign=middle;whiteSpace=wrap;rounded=0;" vertex="1" parent="1">
          <mxGeometry x="1451" y="372" width="90" height="30" as="geometry" />
        </mxCell>
        <mxCell id="XzZFGofTQJ054ZmlWhqK-46" style="edgeStyle=orthogonalEdgeStyle;rounded=0;orthogonalLoop=1;jettySize=auto;html=1;entryX=1;entryY=0.526;entryDx=0;entryDy=0;entryPerimeter=0;" edge="1" parent="1" source="XzZFGofTQJ054ZmlWhqK-43" target="XzZFGofTQJ054ZmlWhqK-24">
          <mxGeometry relative="1" as="geometry" />
        </mxCell>
        <mxCell id="XzZFGofTQJ054ZmlWhqK-50" value="&lt;font style=&quot;font-size: 22px;&quot;&gt;实现&lt;/font&gt;" style="edgeLabel;html=1;align=center;verticalAlign=middle;resizable=0;points=[];" vertex="1" connectable="0" parent="XzZFGofTQJ054ZmlWhqK-46">
          <mxGeometry x="0.0738" y="-3" relative="1" as="geometry">
            <mxPoint as="offset" />
          </mxGeometry>
        </mxCell>
        <mxCell id="XzZFGofTQJ054ZmlWhqK-47" value="" style="rounded=1;whiteSpace=wrap;html=1;fillColor=#f8cecc;strokeColor=#b85450;gradientColor=#ea6b66;" vertex="1" parent="1">
          <mxGeometry x="1409" y="514" width="176" height="94" as="geometry" />
        </mxCell>
        <mxCell id="XzZFGofTQJ054ZmlWhqK-48" value="&lt;b&gt;&lt;font style=&quot;font-size: 18px;&quot;&gt;Hibernate TM&lt;/font&gt;&lt;/b&gt;" style="text;html=1;align=center;verticalAlign=middle;whiteSpace=wrap;rounded=0;" vertex="1" parent="1">
          <mxGeometry x="1452" y="484" width="132" height="30" as="geometry" />
        </mxCell>
        <mxCell id="XzZFGofTQJ054ZmlWhqK-49" value="&lt;b&gt;&lt;font style=&quot;font-size: 18px;&quot;&gt;Hibernate&lt;/font&gt;&lt;/b&gt;" style="text;html=1;align=center;verticalAlign=middle;whiteSpace=wrap;rounded=0;" vertex="1" parent="1">
          <mxGeometry x="1451" y="537" width="90" height="30" as="geometry" />
        </mxCell>
        <mxCell id="XzZFGofTQJ054ZmlWhqK-51" style="rounded=0;orthogonalLoop=1;jettySize=auto;html=1;entryX=1.015;entryY=0.531;entryDx=0;entryDy=0;entryPerimeter=0;" edge="1" parent="1" source="XzZFGofTQJ054ZmlWhqK-47" target="XzZFGofTQJ054ZmlWhqK-24">
          <mxGeometry relative="1" as="geometry" />
        </mxCell>
        <mxCell id="XzZFGofTQJ054ZmlWhqK-52" value="&lt;font style=&quot;font-size: 22px;&quot;&gt;实现&lt;/font&gt;" style="edgeLabel;html=1;align=center;verticalAlign=middle;resizable=0;points=[];" vertex="1" connectable="0" parent="XzZFGofTQJ054ZmlWhqK-51">
          <mxGeometry x="-0.0228" y="-1" relative="1" as="geometry">
            <mxPoint x="1" as="offset" />
          </mxGeometry>
        </mxCell>
        <mxCell id="XzZFGofTQJ054ZmlWhqK-54" value="&lt;b&gt;&lt;font style=&quot;font-size: 18px;&quot;&gt;1.选择一个合适的事务管理器接口加入IOC容器&lt;/font&gt;&lt;/b&gt;" style="text;html=1;align=center;verticalAlign=middle;whiteSpace=wrap;rounded=0;" vertex="1" parent="1">
          <mxGeometry x="682" y="14" width="379" height="30" as="geometry" />
        </mxCell>
        <mxCell id="XzZFGofTQJ054ZmlWhqK-55" value="&lt;b&gt;&lt;font style=&quot;font-size: 18px;&quot;&gt;2.指定哪些方法需要添加事务&lt;/font&gt;&lt;/b&gt;" style="text;html=1;align=center;verticalAlign=middle;whiteSpace=wrap;rounded=0;" vertex="1" parent="1">
          <mxGeometry x="682" y="66" width="379" height="30" as="geometry" />
        </mxCell>
        <mxCell id="XzZFGofTQJ054ZmlWhqK-57" value="&lt;b&gt;&lt;font style=&quot;font-size: 27px; color: rgb(255, 51, 51);&quot;&gt;spring-tx&lt;/font&gt;&lt;/b&gt;" style="text;html=1;align=center;verticalAlign=middle;whiteSpace=wrap;rounded=0;" vertex="1" parent="1">
          <mxGeometry x="860" y="567" width="152" height="30" as="geometry" />
        </mxCell>
        <mxCell id="XzZFGofTQJ054ZmlWhqK-59" value="&lt;b&gt;&lt;font style=&quot;font-size: 18px;&quot;&gt;账户模块&lt;/font&gt;&lt;/b&gt;" style="text;html=1;align=center;verticalAlign=middle;whiteSpace=wrap;rounded=0;" vertex="1" parent="1">
          <mxGeometry x="1232" y="403" width="90" height="30" as="geometry" />
        </mxCell>
        <mxCell id="XzZFGofTQJ054ZmlWhqK-60" value="&lt;b style=&quot;&quot;&gt;&lt;font style=&quot;font-size: 22px; color: rgb(255, 51, 51);&quot;&gt;spring-orm&lt;/font&gt;&lt;/b&gt;" style="text;html=1;align=center;verticalAlign=middle;whiteSpace=wrap;rounded=0;" vertex="1" parent="1">
          <mxGeometry x="1386" y="448" width="131" height="30" as="geometry" />
        </mxCell>
        <mxCell id="XzZFGofTQJ054ZmlWhqK-61" value="&lt;b style=&quot;&quot;&gt;&lt;font style=&quot;color: rgb(255, 51, 51); font-size: 23px;&quot;&gt;spring-jdbc&lt;/font&gt;&lt;/b&gt;" style="text;html=1;align=center;verticalAlign=middle;whiteSpace=wrap;rounded=0;" vertex="1" parent="1">
          <mxGeometry x="1584" y="176" width="132" height="34" as="geometry" />
        </mxCell>
      </root>
    </mxGraphModel>
  </diagram>
</mxfile>
